<?xml version="1.0" encoding="UTF-8"?>
<svg width="15px" height="18px" viewBox="0 0 15 18" version="1.1" xmlns="http://www.w3.org/2000/svg" xmlns:xlink="http://www.w3.org/1999/xlink">
    <!-- Generator: Sketch 49.3 (51167) - http://www.bohemiancoding.com/sketch -->
    <title>Attach file</title>
    <desc>Created with Sketch.</desc>
    <defs></defs>
    <g id="Page-1" stroke="none" stroke-width="1" fill="none" fill-rule="evenodd" stroke-linecap="round">
        <g id="Chat-Screen" transform="translate(-44.000000, -629.000000)" stroke="#BDC8D1">
            <g id="Input" transform="translate(0.000000, 610.000000)">
                <g id="Attach-file" transform="translate(41.000000, 17.000000)">
                    <path d="M16.8908817,11.8918812 C16.8908817,11.8918812 15.030253,14.2433716 12.915694,16.3137714 C11.4116377,17.7864179 10.5466647,18.6041283 8.454343,19.1261397 C7.41454571,19.3855578 5.95700241,18.6284524 5.06048961,17.4078384 C4.15300354,16.1722841 3.8144865,14.4660427 4.08748863,13.5636724 C4.63019175,11.7698433 6.21259991,10.306404 8.32909583,7.92717995 C10.5660879,5.41250211 11.9504317,3.28426452 14.0169372,3.07793643 C16.0834426,2.87160833 17.5100531,4.97450214 17.2278465,6.81994531 C16.94564,8.66538848 15.1533456,10.0222773 13.0943558,12.1885665 C10.9757686,14.4175588 9.40558376,16.3371468 8.1963407,16.5084864 C6.98709765,16.6798261 6.33386521,15.0920286 6.51201678,14.1548338 C6.69016835,13.2176389 12.5127107,7.1363211 12.5127107,7.1363211" id="Icon"></path>
                </g>
            </g>
        </g>
    </g>
</svg>