<svg width="16px" height="18px" viewBox="0 0 16 18" version="1.1" 
  xmlns="http://www.w3.org/2000/svg" 
  xmlns:xlink="http://www.w3.org/1999/xlink">
  <g id="Page-1" stroke="none" stroke-width="1" fill="none" fill-rule="evenodd">
    <g id="Contact-List" transform="translate(-233.000000, -640.000000)" fill="#ffffff">
      <g id="Menu" transform="translate(-1.000000, 633.000000)">
        <g id="Friends" transform="translate(1.000000, 0.000000)">
          <path d="M241.004129,23.5305806 C240.600172,23.5305806 240.247828,23.3055484 240.065692,22.9745376 C240.065692,22.9745376 240.065692,22.9745376 240.065462,22.9745376 C240.350136,23.001147 240.622194,23.0174337 240.876129,23.0204158 L241.238108,23.0208746 C241.458781,23.01881 241.692301,23.0068817 241.935226,22.9864659 C241.751025,23.3108244 241.403039,23.5305806 241.004129,23.5305806 M237.198767,16.8381075 L237.122151,14.0205018 C237.135226,12.5457491 237.437104,11.3127742 238.019527,10.5569319 C238.64691,9.74282437 239.63329,9.2448172 241.035097,9.2448172 L241.037849,9.2448172 C242.397219,9.2448172 243.373047,9.74878853 244.021305,10.5736774 C244.624832,11.3416774 244.952401,12.5551541 244.968918,13.9872401 L244.899412,16.8300789 C244.866609,18.1619211 245.770179,19.4586667 246.768717,20.6377348 C245.145548,21.0983513 242.800029,21.631914 241.233061,21.631914 L240.884846,21.631914 C239.295168,21.631914 236.867986,21.0965161 235.207197,20.6370466 C236.242437,19.4513262 237.236158,18.2174337 237.198767,16.8381075 M241.004129,7.72258065 C241.364272,7.72258065 241.674179,7.88430108 241.80929,8.19512545 C241.563842,8.16851613 241.307384,8.0978638 241.038308,8.0978638 L241.035097,8.0978638 C240.741018,8.0978638 240.461849,8.16943369 240.196903,8.19925448 C240.331097,7.8861362 240.64238,7.72258065 241.004129,7.72258065 M249,21.3403584 C247.874151,20.1374337 246.102796,18.3007025 246.137663,16.8860502 L246.207627,14.0471111 C246.181706,11.2987814 245.141878,9.02620789 242.590366,8.38896057 C242.486452,7.60605018 241.815025,7 241.004129,7 C240.191627,7 239.518824,7.60857348 239.417204,8.39400717 L239.417204,8.39400717 C236.840918,9.03653047 235.90248,11.2941935 235.883441,14.0324301 L235.960516,16.8715986 C235.998824,18.2862509 234.071484,20.0420072 233,21.3511398 C233,21.3511398 236.037591,22.3338495 238.71871,22.7914839 C238.880201,23.9083871 239.843412,24.7692903 241.004129,24.7692903 C242.158652,24.7692903 243.117964,23.9177921 243.287025,22.8098351 L243.287025,22.8098351 C245.960573,22.3583943 249,21.3403584 249,21.3403584" id="Bell"></path>
        </g>
      </g>
    </g>
  </g>
</svg>