<?xml version="1.0" encoding="UTF-8"?>
<svg width="21px" height="21px" viewBox="0 0 21 21" version="1.1" xmlns="http://www.w3.org/2000/svg" xmlns:xlink="http://www.w3.org/1999/xlink">
    <!-- Generator: Sketch 49.1 (51147) - http://www.bohemiancoding.com/sketch -->
    <title>Page 1</title>
    <desc>Created with Sketch.</desc>
    <defs>
        <polygon id="path-1" points="0 0 21 0 21 21 0 21"></polygon>
    </defs>
    <g id="Page-1" stroke="none" stroke-width="1" fill="none" fill-rule="evenodd">
        <g id="Settings-Page" transform="translate(-30.000000, -147.000000)">
            <g id="Page-1" transform="translate(30.000000, 147.000000)">
                <mask id="mask-2" fill="white">
                    <use xlink:href="#path-1"></use>
                </mask>
                <g id="Clip-2"></g>
                <path d="M21,13.281606 L21,2.22544265 C21,0.997857223 20.0013909,0 18.774641,0 L7.7181039,0 C6.49135403,0 5.49274491,0.997857223 5.49274491,2.22544265 L5.49274491,3.15461825 L6.28215924,3.15461825 L6.28215924,2.22544265 C6.28215924,1.43363031 6.92632133,0.789444006 7.7181039,0.789444006 L18.774641,0.789444006 C19.5664236,0.789444006 20.2105857,1.43363031 20.2105857,2.22544265 L20.2105857,13.281606 C20.2105857,14.0734183 19.5664236,14.7176046 18.774641,14.7176046 L17.92681,14.7176046 L17.92681,15.5070486 L18.774641,15.5070486 C20.0013909,15.5070486 21,14.5091914 21,13.281606 Z M1.18412149,6.2823954 C0.96624314,6.2823954 0.78941433,6.45923086 0.78941433,6.6771174 L0.78941433,19.815834 C0.78941433,20.0337205 0.96624314,20.210556 1.18412149,20.210556 L14.3231336,20.210556 C14.541012,20.210556 14.7178408,20.0337205 14.7178408,19.815834 L14.7178408,6.6771174 C14.7178408,6.45923086 14.541012,6.2823954 14.3231336,6.2823954 L1.18412149,6.2823954 Z M14.3231336,21 L1.18412149,21 C0.531275844,21 0,20.4687042 0,19.815834 L0,6.6771174 C0,6.02424721 0.531275844,5.49295139 1.18412149,5.49295139 L14.3231336,5.49295139 C14.9759792,5.49295139 15.5072551,6.02424721 15.5072551,6.6771174 L15.5072551,19.815834 C15.5072551,20.4687042 14.9759792,21 14.3231336,21 Z" id="Fill-1" fill="#4D4D4D" mask="url(#mask-2)"></path>
            </g>
        </g>
    </g>
</svg>