<?xml version="1.0" encoding="UTF-8"?>
<svg width="21px" height="16px" viewBox="0 0 21 16" version="1.1" xmlns="http://www.w3.org/2000/svg" xmlns:xlink="http://www.w3.org/1999/xlink">
    <!-- Generator: Sketch 49.1 (51147) - http://www.bohemiancoding.com/sketch -->
    <title>Page 1</title>
    <desc>Created with Sketch.</desc>
    <defs></defs>
    <g id="Page-1" stroke="none" stroke-width="1" fill="none" fill-rule="evenodd">
        <g id="Settings-Page" transform="translate(-31.000000, -261.000000)" fill="#303030">
            <path d="M49,265 L52,265 L52,261.999 L49,261.999 L49,265 Z M43,265 L46.001,265 L46.001,261.999 L43,261.999 L43,265 Z M37,265 L40,265 L40,261.999 L37,261.999 L37,265 Z M31,265 L34,265 L34,261.999 L31,261.999 L31,265 Z M49,271 L52,271 L52,268 L49,268 L49,271 Z M43,271 L46.001,271 L46.001,268 L43,268 L43,271 Z M37,271 L40,271 L40,268 L37,268 L37,271 Z M31,271 L34,271 L34,268 L31,268 L31,271 Z M49,277 L52,277 L52,274 L49,274 L49,277 Z M43,277 L46.001,277 L46.001,274 L43,274 L43,277 Z M37,277 L40,277 L40,274 L37,274 L37,277 Z M31,277 L34,277 L34,274 L31,274 L31,277 Z" id="Page-1"></path>
        </g>
    </g>
</svg>