<?xml version="1.0" encoding="UTF-8"?>
<svg width="24px" height="24px" viewBox="0 0 24 24" version="1.1" xmlns="http://www.w3.org/2000/svg" xmlns:xlink="http://www.w3.org/1999/xlink">
    <!-- Generator: Sketch 49.1 (51147) - http://www.bohemiancoding.com/sketch -->
    <title>Page 1</title>
    <desc>Created with Sketch.</desc>
    <defs></defs>
    <g id="Page-1" stroke="none" stroke-width="1" fill="none" fill-rule="evenodd">
        <g id="Settings-Page" transform="translate(-29.000000, -203.000000)" fill="#4D4D4D">
            <path d="M37.802,212.1506 L48.335,212.1506 L48.335,209.5046 L37.802,209.5046 L37.802,212.1506 Z M37.802,217.1936 L48.335,217.1936 L48.335,214.5476 L37.802,214.5476 L37.802,217.1936 Z M37.802,222.4836 L48.335,222.4836 L48.335,219.8376 L37.802,219.8376 L37.802,222.4836 Z M32.825,212.1506 L35.479,212.1506 L35.479,209.5046 L32.825,209.5046 L32.825,212.1506 Z M32.825,217.1936 L35.479,217.1936 L35.479,214.5476 L32.825,214.5476 L32.825,217.1936 Z M32.825,222.4836 L35.479,222.4836 L35.479,219.8376 L32.825,219.8376 L32.825,222.4836 Z M49.632,205.9016 L43.628,205.9016 L41.458,203.4116 C40.991,202.8766 40.21,202.8606 39.723,203.3766 L37.342,205.9016 L31.587,205.9016 C30.164,205.9016 29,207.0616 29,208.4796 L29,223.5096 C29,224.9286 30.164,226.0886 31.587,226.0886 L49.632,226.0886 C51.055,226.0886 52.219,224.9286 52.219,223.5096 L52.219,208.4796 C52.219,207.0616 51.055,205.9016 49.632,205.9016 Z" id="Page-1"></path>
        </g>
    </g>
</svg>