<svg width="20px" height="16px" viewBox="0 0 20 16" version="1.1" 
  xmlns="http://www.w3.org/2000/svg" 
  xmlns:xlink="http://www.w3.org/1999/xlink">
  <g id="Page-1" stroke="none" stroke-width="1" fill="none" fill-rule="evenodd">
    <g id="Contact-List" transform="translate(-135.000000, -642.000000)" stroke="#000000" stroke-width="2">
      <g id="Menu" transform="translate(-1.000000, 633.000000)">
        <g id="Group-4">
          <path d="M146,10 C141.0374,10 137,12.7475 137,16.125 C137,17.8353333 138.0536,19.4663333 139.8986,20.6248333 C139.4492,22.6758333 137.846,23.4114167 137.7758,23.4429167 C137.6456,23.50125 137.5748,23.6406667 137.609,23.776 C137.6408,23.9078333 137.762,24 137.9,24 C137.9042,24 137.9084,24 137.9126,23.9994167 C138.0524,23.9935833 141.347,23.8419167 144.3908,22.15025 C144.9296,22.2161667 145.4708,22.25 146,22.25 C150.9626,22.25 155,19.5025 155,16.125 C155,12.7475 150.9626,10 146,10" id="Fill-731"></path>
        </g>
      </g>
    </g>
  </g>
</svg>