<svg width="17px" height="16px" viewBox="0 0 17 16" version="1.1" 
  xmlns="http://www.w3.org/2000/svg" 
  xmlns:xlink="http://www.w3.org/1999/xlink">
  <g id="Page-1" stroke="none" stroke-width="1" fill="none" fill-rule="evenodd">
    <g id="Privacy-Policy" transform="translate(-38.000000, -642.000000)" fill="#000000">
      <g id="Menu" transform="translate(0.000000, 633.000000)">
        <path d="M50.1530318,17.7928375 C50.7713718,16.8805042 51.1431412,15.7500042 51.1431412,14.5208333 C51.1431412,11.5086458 48.9404076,9.06666667 46.222664,9.06666667 C43.5049205,9.06666667 41.3021869,11.5086458 41.3021869,14.5208333 C41.3021869,15.7500042 41.6739563,16.8805042 42.2928429,17.7928375 C39.749503,18.8871417 38.0218688,21.0063333 38.0218688,23.4458333 L38.0218688,23.9416667 C38.0218688,24.4895625 38.5117296,24.9333333 39.1153082,24.9333333 L53.3300199,24.9333333 C53.9341451,24.9333333 54.4234592,24.4895625 54.4234592,23.9416667 L54.4234592,23.4458333 C54.4234592,21.0058375 52.695825,18.8871417 50.1530318,17.7928375 L50.1530318,17.7928375 Z M46.222664,10.5541667 C48.0005964,10.5541667 49.5029821,12.3704042 49.5029821,14.5208333 C49.5029821,16.6707667 48.0005964,18.4875 46.222664,18.4875 C44.4447316,18.4875 42.9423459,16.6707667 42.9423459,14.5208333 C42.9423459,12.3704042 44.4447316,10.5541667 46.222664,10.5541667 L46.222664,10.5541667 Z M39.6620278,23.4458333 C39.6620278,21.4778708 41.1873757,19.7771625 43.3906561,18.9768875 C44.1921471,19.6036208 45.167495,19.975 46.222664,19.975 C47.277833,19.975 48.2531809,19.6036208 49.054672,18.9768875 C51.2579523,19.7771625 52.7833002,21.4778708 52.7833002,23.4458333 L39.6620278,23.4458333 L39.6620278,23.4458333 Z" id="Imported-Layers"></path>
      </g>
    </g>
  </g>
</svg>