<svg width="19px" height="19px" viewBox="0 0 19 19" version="1.1" 
  xmlns="http://www.w3.org/2000/svg" 
  xmlns:xlink="http://www.w3.org/1999/xlink">
  <g id="Page-1" stroke="none" stroke-width="1" fill="none" fill-rule="evenodd">
    <g id="Contact-List" transform="translate(-317.000000, -639.000000)" fill="#ffffff">
      <g id="Menu" transform="translate(-1.000000, 633.000000)">
        <g id="Settings" transform="translate(318.000000, 6.000000)">
          <path d="M17.1178125,8.3125 C16.9254375,7.06859375 16.4391562,5.9244375 15.7266563,4.951875 L16.2764687,4.4020625 C16.5092187,4.16990625 16.625,3.8665 16.625,3.5625 C16.625,3.2585 16.5092187,2.95509375 16.2764687,2.7229375 C16.0449063,2.49078125 15.7409063,2.375 15.4369062,2.375 C15.1329063,2.375 14.8295,2.49078125 14.5973438,2.7229375 L14.0475312,3.27275 C13.0749688,2.56084375 11.9314062,2.0745625 10.6875,1.8821875 L10.6875,1.1875 C10.6875,0.53140625 10.1560938,0 9.5,0 C8.8445,0 8.3125,0.53140625 8.3125,1.1875 L8.3125,1.8821875 C7.06859375,2.0745625 5.92503125,2.5614375 4.951875,3.27334375 L4.40146875,2.7229375 C4.16990625,2.4901875 3.86590625,2.37440625 3.5613125,2.37440625 C3.25790625,2.37440625 2.9545,2.4901875 2.72234375,2.7229375 C2.4901875,2.95509375 2.37440625,3.2585 2.37440625,3.5625 C2.37440625,3.8665 2.4901875,4.16990625 2.72234375,4.4020625 L3.27275,4.9530625 C2.5614375,5.92503125 2.0745625,7.06859375 1.8821875,8.3125 L1.1875,8.3125 C0.532,8.3125 0,8.84390625 0,9.5 C0,10.1555 0.532,10.6875 1.1875,10.6875 L1.8821875,10.6875 C2.0745625,11.9314062 2.5614375,13.0749688 3.27334375,14.048125 L2.7229375,14.5979375 C2.4901875,14.8300937 2.37440625,15.1346875 2.375,15.439875 C2.37559375,15.7432813 2.491375,16.0460938 2.7229375,16.2770625 C2.95509375,16.5098125 3.25909375,16.625 3.5625,16.625 C3.86709375,16.625 4.17109375,16.5092187 4.4020625,16.2770625 L4.95246875,15.72725 C5.925625,16.4385625 7.06859375,16.9254375 8.3125,17.1178125 L8.3125,17.8125 C8.3125,18.468 8.8445,19 9.5,19 C10.1560938,19 10.6875,18.468 10.6875,17.8125 L10.6875,17.1178125 C11.9314062,16.9254375 13.0749688,16.4385625 14.0475312,15.7266563 L14.5973438,16.2764687 C14.8300937,16.5092187 15.1346875,16.625 15.4386875,16.6244062 C15.7426875,16.6238125 16.0460938,16.5080313 16.2764687,16.2764687 C16.5092187,16.0443125 16.6244062,15.7403125 16.6244062,15.4369062 C16.6244062,15.1323125 16.508625,14.8283125 16.2764687,14.5973438 L15.7266563,14.048125 C16.4391562,13.0749688 16.9254375,11.9314062 17.1178125,10.6875 L17.8125,10.6875 C18.4685938,10.6875 19,10.1555 19,9.5 C19,8.84390625 18.4685938,8.3125 17.8125,8.3125 L17.1178125,8.3125 Z M9.5,15.4375 C6.22665625,15.4375 3.5625,12.7739375 3.5625,9.5 C3.5625,6.2260625 6.22665625,3.5625 9.5,3.5625 C12.7739375,3.5625 15.4375,6.2260625 15.4375,9.5 C15.4375,12.7739375 12.7739375,15.4375 9.5,15.4375 L9.5,15.4375 Z M9.5,5.9375 C7.53290625,5.9375 5.9375,7.53171875 5.9375,9.5 C5.9375,11.4676875 7.53290625,13.0625 9.5,13.0625 C11.4676875,13.0625 13.0625,11.4676875 13.0625,9.5 C13.0625,7.53171875 11.4676875,5.9375 9.5,5.9375 L9.5,5.9375 Z M9.5,11.28125 C8.5179375,11.28125 7.71875,10.4820625 7.71875,9.5 C7.71875,8.5179375 8.5179375,7.71875 9.5,7.71875 C10.4820625,7.71875 11.28125,8.5179375 11.28125,9.5 C11.28125,10.4820625 10.4820625,11.28125 9.5,11.28125 L9.5,11.28125 Z" id="Imported-Layers"></path>
        </g>
      </g>
    </g>
  </g>
</svg>